<?xml version="1.0" encoding="UTF-8" standalone="no"?>
<!-- Created with Inkscape (http://www.inkscape.org/) -->

<svg
   width="105.83334mm"
   height="16.933334mm"
   viewBox="0 0 105.83333 16.933334"
   version="1.1"
   id="svg5"
   sodipodi:docname="mask.svg"
   inkscape:version="1.2.2 (b0a8486541, 2022-12-01)"
   xmlns:inkscape="http://www.inkscape.org/namespaces/inkscape"
   xmlns:sodipodi="http://sodipodi.sourceforge.net/DTD/sodipodi-0.dtd"
   xmlns="http://www.w3.org/2000/svg"
   xmlns:svg="http://www.w3.org/2000/svg">
  <sodipodi:namedview
     id="namedview7"
     pagecolor="#ffffff"
     bordercolor="#000000"
     borderopacity="0.25"
     inkscape:showpageshadow="2"
     inkscape:pageopacity="0.0"
     inkscape:pagecheckerboard="0"
     inkscape:deskcolor="#d1d1d1"
     inkscape:document-units="mm"
     showgrid="false"
     inkscape:zoom="4.4499999"
     inkscape:cx="200"
     inkscape:cy="32.022473"
     inkscape:window-width="1920"
     inkscape:window-height="983"
     inkscape:window-x="0"
     inkscape:window-y="0"
     inkscape:window-maximized="1"
     inkscape:current-layer="layer1"
     showguides="false" />
  <defs
     id="defs2" />
  <g
     inkscape:label="Camada 1"
     inkscape:groupmode="layer"
     id="layer1"
     transform="translate(-43.793144,-80.77504)">
    <path
       id="rect442"
       style="fill:#000000;stroke-width:1;stroke-linejoin:round"
       d="m 48.026477,80.77504 c 0,2.338005 -1.895328,4.233333 -4.233333,4.233333 v 4.233334 4.233333 c 2.338005,0 4.233333,1.895328 4.233333,4.233333 h 1.596285 c 0,0 0.559431,-1.058333 1.058334,-1.058333 0.498903,0 1.058333,1.058333 1.058333,1.058333 h 2.728516 c 0,0 0.55943,-1.058333 1.058333,-1.058333 0.498903,0 1.058333,1.058333 1.058333,1.058333 h 2.728516 c 0,0 0.55943,-1.058333 1.058333,-1.058333 0.498903,0 1.058334,1.058333 1.058334,1.058333 h 2.728515 c 0,0 0.559431,-1.058333 1.058334,-1.058333 0.498903,0 1.058333,1.058333 1.058333,1.058333 h 2.728515 c 0,0 0.559431,-1.058333 1.058334,-1.058333 0.498903,0 1.058333,1.058333 1.058333,1.058333 h 2.728516 c 0,0 0.55943,-1.058333 1.058333,-1.058333 0.498903,0 1.058333,1.058333 1.058333,1.058333 h 2.727999 c 0,0 0.559431,-1.058333 1.058334,-1.058333 0.498903,0 1.058333,1.058333 1.058333,1.058333 h 2.728516 c 0,0 0.55943,-1.058333 1.058333,-1.058333 0.498903,0 1.058333,1.058333 1.058333,1.058333 h 2.728516 c 0,0 0.55943,-1.058333 1.058333,-1.058333 0.498903,0 1.058334,1.058333 1.058334,1.058333 h 2.728515 c 0,0 0.559431,-1.058333 1.058334,-1.058333 0.498903,0 1.058333,1.058333 1.058333,1.058333 h 2.728515 c 0,0 0.559431,-1.058333 1.058334,-1.058333 0.498904,0 1.058338,1.058333 1.058338,1.058333 h 2.72851 c 0,0 0.55943,-1.058332 1.05833,-1.058333 0.4989,-10e-7 1.05834,1.058333 1.05834,1.058333 h 2.72851 c 0,0 0.55944,-1.058334 1.05834,-1.058333 0.4989,10e-7 1.05833,1.058333 1.05833,1.058333 h 2.72852 c 0,0 0.55943,-1.058333 1.05833,-1.058333 0.4989,0 1.05833,1.058333 1.05833,1.058333 h 2.728 c 0,0 0.55943,-1.058332 1.05833,-1.058333 0.4989,-10e-7 1.05834,1.058333 1.05834,1.058333 h 2.72851 c 0,0 0.55944,-1.058334 1.05834,-1.058333 0.4989,10e-7 1.05833,1.058333 1.05833,1.058333 h 2.72852 c 0,0 0.55943,-1.058333 1.05833,-1.058333 0.4989,0 1.05833,1.058333 1.05833,1.058333 h 2.72852 c 0,0 0.55943,-1.058333 1.05833,-1.058333 0.4989,0 1.05833,1.058333 1.05833,1.058333 h 2.72852 c 0,0 0.55943,-1.058332 1.05833,-1.058333 0.4989,-10e-7 1.05834,1.058333 1.05834,1.058333 h 2.72851 c 0,0 0.55944,-1.058334 1.05834,-1.058333 0.4989,10e-7 1.05833,1.058333 1.05833,1.058333 h 1.59628 c 0,-2.338008 1.89533,-4.233337 4.23334,-4.233333 v -4.233333 -4.233334 c -2.33801,4e-6 -4.23334,-1.895325 -4.23334,-4.233333 h -1.59628 c 0,0 -0.55943,1.058332 -1.05833,1.058333 -0.4989,1e-6 -1.05834,-1.058333 -1.05834,-1.058333 h -2.72851 c 0,0 -0.55944,1.058334 -1.05834,1.058333 -0.4989,-10e-7 -1.05833,-1.058333 -1.05833,-1.058333 h -2.72852 c 0,0 -0.55943,1.058333 -1.05833,1.058333 -0.4989,0 -1.05833,-1.058333 -1.05833,-1.058333 h -2.72852 c 0,0 -0.55943,1.058333 -1.05833,1.058333 -0.4989,0 -1.05833,-1.058333 -1.05833,-1.058333 h -2.72852 c 0,0 -0.55943,1.058332 -1.05833,1.058333 -0.4989,1e-6 -1.05834,-1.058333 -1.05834,-1.058333 h -2.72851 c 0,0 -0.55944,1.058334 -1.05834,1.058333 -0.4989,-10e-7 -1.05833,-1.058333 -1.05833,-1.058333 h -2.728 c 0,0 -0.55943,1.058333 -1.05833,1.058333 -0.4989,0 -1.05833,-1.058333 -1.05833,-1.058333 h -2.72852 c 0,0 -0.55943,1.058332 -1.05833,1.058333 -0.4989,1e-6 -1.05834,-1.058333 -1.05834,-1.058333 h -2.72851 c 0,0 -0.55944,1.058334 -1.05834,1.058333 -0.4989,-10e-7 -1.05833,-1.058333 -1.05833,-1.058333 h -2.72851 c 0,0 -0.559434,1.058333 -1.058338,1.058333 -0.498903,0 -1.058334,-1.058333 -1.058334,-1.058333 h -2.728515 c 0,0 -0.55943,1.058333 -1.058333,1.058333 -0.498903,0 -1.058334,-1.058333 -1.058334,-1.058333 h -2.728515 c 0,0 -0.559431,1.058333 -1.058334,1.058333 -0.498903,0 -1.058333,-1.058333 -1.058333,-1.058333 h -2.728516 c 0,0 -0.55943,1.058333 -1.058333,1.058333 -0.498903,0 -1.058333,-1.058333 -1.058333,-1.058333 h -2.728516 c 0,0 -0.55943,1.058333 -1.058333,1.058333 -0.498903,0 -1.058334,-1.058333 -1.058334,-1.058333 H 75.96534 c 0,0 -0.55943,1.058333 -1.058333,1.058333 -0.498903,0 -1.058333,-1.058333 -1.058333,-1.058333 h -2.728516 c 0,0 -0.55943,1.058333 -1.058333,1.058333 -0.498903,0 -1.058334,-1.058333 -1.058334,-1.058333 h -2.728515 c 0,0 -0.55943,1.058333 -1.058333,1.058333 -0.498903,0 -1.058334,-1.058333 -1.058334,-1.058333 h -2.728515 c 0,0 -0.559431,1.058333 -1.058334,1.058333 -0.498903,0 -1.058333,-1.058333 -1.058333,-1.058333 h -2.728516 c 0,0 -0.55943,1.058333 -1.058333,1.058333 -0.498903,0 -1.058333,-1.058333 -1.058333,-1.058333 h -2.728516 c 0,0 -0.55943,1.058333 -1.058333,1.058333 -0.498903,0 -1.058334,-1.058333 -1.058334,-1.058333 z"
       sodipodi:nodetypes="ccccccsccsccsccsccsccsccsccsccsccsccsccsccsccsccsccsccsccsccsccscccccccsccsccsccsccsccsccsccsccsccsccsccsccsccsccsccsccsccsccsccscc" />
    <g
       id="g643"
       transform="translate(0,17.291287)">
      <rect
         style="fill:#000000;stroke-width:1;stroke-linejoin:round"
         id="rect637"
         width="105.83334"
         height="8.4666662"
         x="43.793144"
         y="89.241707" />
      <circle
         style="fill:#ffffff;stroke-width:1;stroke-linejoin:round"
         id="circle639"
         cx="43.793144"
         cy="97.708374"
         r="4.2333336" />
      <circle
         style="fill:#ffffff;stroke-width:1;stroke-linejoin:round"
         id="circle641"
         cx="149.6265"
         cy="97.708374"
         r="4.2333336" />
    </g>
    <g
       id="g830"
       transform="translate(-0.281232,17.291286)">
      <path
         id="rect749"
         style="fill:#ffffff;stroke-width:1;stroke-linejoin:round"
         d="m 49.904058,97.708373 1.058333,-1.058332 1.058334,1.058334 -1.058333,1.058332 z" />
      <path
         id="path772"
         style="fill:#ffffff;stroke-width:1;stroke-linejoin:round"
         d="m 54.749179,97.708373 1.058333,-1.058332 1.058334,1.058334 -1.058333,1.058332 z" />
      <path
         id="path774"
         style="fill:#ffffff;stroke-width:1;stroke-linejoin:round"
         d="m 59.5943,97.708373 1.058333,-1.058332 1.058334,1.058334 -1.058333,1.058332 z" />
      <path
         id="path776"
         style="fill:#ffffff;stroke-width:1;stroke-linejoin:round"
         d="m 64.439421,97.708373 1.058333,-1.058332 1.058334,1.058334 -1.058333,1.058332 z" />
      <path
         id="path778"
         style="fill:#ffffff;stroke-width:1;stroke-linejoin:round"
         d="m 69.284541,97.708373 1.058333,-1.058332 1.058334,1.058334 -1.058333,1.058332 z" />
      <path
         id="path780"
         style="fill:#ffffff;stroke-width:1;stroke-linejoin:round"
         d="m 74.129662,97.708373 1.058333,-1.058332 1.058334,1.058334 -1.058333,1.058332 z" />
      <path
         id="path782"
         style="fill:#ffffff;stroke-width:1;stroke-linejoin:round"
         d="m 78.974783,97.708373 1.058333,-1.058332 1.058334,1.058334 -1.058333,1.058332 z" />
      <path
         id="path784"
         style="fill:#ffffff;stroke-width:1;stroke-linejoin:round"
         d="m 83.819904,97.708373 1.058333,-1.058332 1.058334,1.058334 -1.058333,1.058332 z" />
      <path
         id="path786"
         style="fill:#ffffff;stroke-width:1;stroke-linejoin:round"
         d="m 88.665025,97.708373 1.058333,-1.058332 1.05833,1.058334 -1.05833,1.058332 z" />
      <path
         id="path788"
         style="fill:#ffffff;stroke-width:1;stroke-linejoin:round"
         d="m 93.510142,97.708373 1.05834,-1.058332 1.05833,1.058334 -1.05833,1.058332 z" />
      <path
         id="path790"
         style="fill:#ffffff;stroke-width:1;stroke-linejoin:round"
         d="m 98.355265,97.708373 1.05833,-1.058332 1.058345,1.058334 -1.058345,1.058332 z" />
      <path
         id="path792"
         style="fill:#ffffff;stroke-width:1;stroke-linejoin:round"
         d="m 108.0455,97.708373 1.05833,-1.058332 1.05834,1.058334 -1.05834,1.058332 z" />
      <path
         id="path794"
         style="fill:#ffffff;stroke-width:1;stroke-linejoin:round"
         d="m 112.89063,97.708373 1.05833,-1.058332 1.05834,1.058334 -1.05834,1.058332 z" />
      <path
         id="path796"
         style="fill:#ffffff;stroke-width:1;stroke-linejoin:round"
         d="m 103.20039,97.708373 1.05833,-1.058332 1.05833,1.058334 -1.05833,1.058332 z" />
      <path
         id="path798"
         style="fill:#ffffff;stroke-width:1;stroke-linejoin:round"
         d="m 117.73575,97.708373 1.05833,-1.058332 1.05833,1.058334 -1.05833,1.058332 z" />
      <path
         id="path800"
         style="fill:#ffffff;stroke-width:1;stroke-linejoin:round"
         d="m 122.58086,97.708373 1.05834,-1.058332 1.05833,1.058334 -1.05833,1.058332 z" />
      <path
         id="path802"
         style="fill:#ffffff;stroke-width:1;stroke-linejoin:round"
         d="m 127.42599,97.708373 1.05833,-1.058332 1.05834,1.058334 -1.05834,1.058332 z" />
      <path
         id="path804"
         style="fill:#ffffff;stroke-width:1;stroke-linejoin:round"
         d="m 132.27111,97.708373 1.05833,-1.058332 1.05834,1.058334 -1.05834,1.058332 z" />
      <path
         id="path806"
         style="fill:#ffffff;stroke-width:1;stroke-linejoin:round"
         d="m 137.11624,97.708373 1.05833,-1.058332 1.05834,1.058334 -1.05834,1.058332 z" />
      <path
         id="path808"
         style="fill:#ffffff;stroke-width:1;stroke-linejoin:round"
         d="m 141.96136,97.708373 1.05833,-1.058332 1.05834,1.058334 -1.05834,1.058332 z" />
    </g>
  </g>
</svg>
