<?xml version="1.0" encoding="UTF-8" standalone="no"?>
<!-- Created with Inkscape (http://www.inkscape.org/) -->

<svg
   width="105.83334mm"
   height="16.933334mm"
   viewBox="0 0 105.83333 16.933334"
   version="1.1"
   id="svg5"
   sodipodi:docname="mask3.svg"
   inkscape:version="1.2.2 (b0a8486541, 2022-12-01)"
   xmlns:inkscape="http://www.inkscape.org/namespaces/inkscape"
   xmlns:sodipodi="http://sodipodi.sourceforge.net/DTD/sodipodi-0.dtd"
   xmlns:xlink="http://www.w3.org/1999/xlink"
   xmlns="http://www.w3.org/2000/svg"
   xmlns:svg="http://www.w3.org/2000/svg">
  <sodipodi:namedview
     id="namedview7"
     pagecolor="#ffffff"
     bordercolor="#000000"
     borderopacity="0.25"
     inkscape:showpageshadow="2"
     inkscape:pageopacity="0.0"
     inkscape:pagecheckerboard="0"
     inkscape:deskcolor="#d1d1d1"
     inkscape:document-units="mm"
     showgrid="false"
     inkscape:zoom="3.1466251"
     inkscape:cx="176.69725"
     inkscape:cy="98.041549"
     inkscape:window-width="1920"
     inkscape:window-height="983"
     inkscape:window-x="0"
     inkscape:window-y="0"
     inkscape:window-maximized="1"
     inkscape:current-layer="layer1"
     showguides="false" />
  <defs
     id="defs2" />
  <g
     inkscape:label="Camada 1"
     inkscape:groupmode="layer"
     id="layer1"
     transform="translate(-43.793144,-80.77504)">
    <rect
       style="fill:#000000;stroke-width:1;stroke-linejoin:round"
       id="rect637"
       width="105.83334"
       height="8.4666662"
       x="43.793144"
       y="106.533" />
    <circle
       style="fill:#ffffff;stroke-width:1;stroke-linejoin:round"
       id="path1338"
       cx="34.420807"
       cy="114.99966"
       r="1.2825663" />
    <g
       id="g1409">
      <use
         x="0"
         y="0"
         xlink:href="#path1338"
         id="use1340"
         transform="translate(12.082355)" />
      <use
         x="0"
         y="0"
         xlink:href="#path1338"
         id="use1342"
         transform="translate(16.646596)" />
      <use
         x="0"
         y="0"
         xlink:href="#path1338"
         id="use1344"
         transform="translate(21.210838)" />
      <use
         x="0"
         y="0"
         xlink:href="#path1338"
         id="use1346"
         transform="translate(25.775079)" />
      <use
         x="0"
         y="0"
         xlink:href="#path1338"
         id="use1348"
         transform="translate(30.33932)" />
      <use
         x="0"
         y="0"
         xlink:href="#path1338"
         id="use1350"
         transform="translate(34.903561)" />
      <use
         x="0"
         y="0"
         xlink:href="#path1338"
         id="use1352"
         transform="translate(39.467803)" />
      <use
         x="0"
         y="0"
         xlink:href="#path1338"
         id="use1354"
         transform="translate(44.032044)" />
      <use
         x="0"
         y="0"
         xlink:href="#path1338"
         id="use1356"
         transform="translate(48.596285)" />
      <use
         x="0"
         y="0"
         xlink:href="#path1338"
         id="use1358"
         transform="translate(53.160526)" />
      <use
         x="0"
         y="0"
         xlink:href="#path1338"
         id="use1360"
         transform="translate(57.724768)" />
      <use
         x="0"
         y="0"
         xlink:href="#path1338"
         id="use1362"
         transform="translate(62.289009)" />
      <use
         x="0"
         y="0"
         xlink:href="#path1338"
         id="use1364"
         transform="translate(66.85325)" />
      <use
         x="0"
         y="0"
         xlink:href="#path1338"
         id="use1366"
         transform="translate(71.417491)" />
      <use
         x="0"
         y="0"
         xlink:href="#path1338"
         id="use1368"
         transform="translate(75.981733)" />
      <use
         x="0"
         y="0"
         xlink:href="#path1338"
         id="use1370"
         transform="translate(80.545974)" />
      <use
         x="0"
         y="0"
         xlink:href="#path1338"
         id="use1372"
         transform="translate(85.110215)" />
      <use
         x="0"
         y="0"
         xlink:href="#path1338"
         id="use1374"
         transform="translate(89.674457)" />
      <use
         x="0"
         y="0"
         xlink:href="#path1338"
         id="use1376"
         transform="translate(94.238698)" />
      <use
         x="0"
         y="0"
         xlink:href="#path1338"
         id="use1378"
         transform="translate(98.802936)" />
      <use
         x="0"
         y="0"
         xlink:href="#path1338"
         id="use1380"
         transform="translate(103.36718)" />
      <use
         x="0"
         y="0"
         xlink:href="#path1338"
         id="use1382"
         transform="translate(107.93143)" />
      <use
         x="0"
         y="0"
         xlink:href="#path1338"
         id="use1384"
         transform="translate(112.49566)" />
    </g>
    <use
       x="0"
       y="0"
       xlink:href="#g1409"
       id="use1411"
       transform="translate(-2.3422394,-3.106645)" />
    <path
       id="rect1415"
       style="fill:#000000;stroke-width:1;stroke-linejoin:round"
       d="M 43.793144 80.77504 L 43.793144 82.672599 A 1.2825663 1.2825663 0 0 1 44.16108 82.599218 A 1.2825663 1.2825663 0 0 1 45.443689 83.881827 A 1.2825663 1.2825663 0 0 1 44.16108 85.164436 A 1.2825663 1.2825663 0 0 1 43.793144 85.091056 L 43.793144 89.241707 L 43.793144 93.392358 A 1.2825663 1.2825663 0 0 1 44.16108 93.318977 A 1.2825663 1.2825663 0 0 1 45.443689 94.601586 A 1.2825663 1.2825663 0 0 1 44.16108 95.884195 A 1.2825663 1.2825663 0 0 1 43.793144 95.810815 L 43.793144 97.708373 L 45.220447 97.708373 A 1.2825663 1.2825663 0 0 1 46.503056 96.425764 A 1.2825663 1.2825663 0 0 1 47.785665 97.708373 L 49.785026 97.708373 A 1.2825663 1.2825663 0 0 1 51.067635 96.425764 A 1.2825663 1.2825663 0 0 1 52.349728 97.708373 L 54.349089 97.708373 A 1.2825663 1.2825663 0 0 1 55.631698 96.425764 A 1.2825663 1.2825663 0 0 1 56.914307 97.708373 L 58.913151 97.708373 A 1.2825663 1.2825663 0 0 1 60.19576 96.425764 A 1.2825663 1.2825663 0 0 1 61.478369 97.708373 L 63.477731 97.708373 A 1.2825663 1.2825663 0 0 1 64.76034 96.425764 A 1.2825663 1.2825663 0 0 1 66.042949 97.708373 L 68.041793 97.708373 A 1.2825663 1.2825663 0 0 1 69.324402 96.425764 A 1.2825663 1.2825663 0 0 1 70.607011 97.708373 L 72.605856 97.708373 A 1.2825663 1.2825663 0 0 1 73.888465 96.425764 A 1.2825663 1.2825663 0 0 1 75.171074 97.708373 L 77.170435 97.708373 A 1.2825663 1.2825663 0 0 1 78.453044 96.425764 A 1.2825663 1.2825663 0 0 1 79.735653 97.708373 L 81.734497 97.708373 A 1.2825663 1.2825663 0 0 1 83.017106 96.425764 A 1.2825663 1.2825663 0 0 1 84.299715 97.708373 L 86.29856 97.708373 A 1.2825663 1.2825663 0 0 1 87.581169 96.425764 A 1.2825663 1.2825663 0 0 1 88.863778 97.708373 L 90.863139 97.708373 A 1.2825663 1.2825663 0 0 1 92.145748 96.425764 A 1.2825663 1.2825663 0 0 1 93.428357 97.708373 L 95.427202 97.708373 A 1.2825663 1.2825663 0 0 1 96.709811 96.425764 A 1.2825663 1.2825663 0 0 1 97.99242 97.708373 L 99.991264 97.708373 A 1.2825663 1.2825663 0 0 1 101.27387 96.425764 A 1.2825663 1.2825663 0 0 1 102.55648 97.708373 L 104.55584 97.708373 A 1.2825663 1.2825663 0 0 1 105.83845 96.425764 A 1.2825663 1.2825663 0 0 1 107.12106 97.708373 L 109.11991 97.708373 A 1.2825663 1.2825663 0 0 1 110.40251 96.425764 A 1.2825663 1.2825663 0 0 1 111.68512 97.708373 L 113.68397 97.708373 A 1.2825663 1.2825663 0 0 1 114.96658 96.425764 A 1.2825663 1.2825663 0 0 1 116.24919 97.708373 L 118.24855 97.708373 A 1.2825663 1.2825663 0 0 1 119.53116 96.425764 A 1.2825663 1.2825663 0 0 1 120.81377 97.708373 L 122.81261 97.708373 A 1.2825663 1.2825663 0 0 1 124.09522 96.425764 A 1.2825663 1.2825663 0 0 1 125.37783 97.708373 L 127.37719 97.708373 A 1.2825663 1.2825663 0 0 1 128.65928 96.425764 A 1.2825663 1.2825663 0 0 1 129.94189 97.708373 L 131.94125 97.708373 A 1.2825663 1.2825663 0 0 1 133.22386 96.425764 A 1.2825663 1.2825663 0 0 1 134.50647 97.708373 L 136.50531 97.708373 A 1.2825663 1.2825663 0 0 1 137.78792 96.425764 A 1.2825663 1.2825663 0 0 1 139.07053 97.708373 L 141.06989 97.708373 A 1.2825663 1.2825663 0 0 1 142.35199 96.425764 A 1.2825663 1.2825663 0 0 1 143.6346 97.708373 L 145.63396 97.708373 A 1.2825663 1.2825663 0 0 1 146.91657 96.425764 A 1.2825663 1.2825663 0 0 1 148.19917 97.708373 L 149.62648 97.708373 L 149.62648 95.78756 A 1.2825663 1.2825663 0 0 1 149.13865 95.884195 A 1.2825663 1.2825663 0 0 1 147.85604 94.601586 A 1.2825663 1.2825663 0 0 1 149.13865 93.318977 A 1.2825663 1.2825663 0 0 1 149.62648 93.415612 L 149.62648 89.241707 L 149.62648 85.067801 A 1.2825663 1.2825663 0 0 1 149.13865 85.164436 A 1.2825663 1.2825663 0 0 1 147.85604 83.881827 A 1.2825663 1.2825663 0 0 1 149.13865 82.599218 A 1.2825663 1.2825663 0 0 1 149.62648 82.695853 L 149.62648 80.77504 L 148.19917 80.77504 A 1.2825663 1.2825663 0 0 1 146.91657 82.057649 A 1.2825663 1.2825663 0 0 1 145.63396 80.77504 L 143.6346 80.77504 A 1.2825663 1.2825663 0 0 1 142.35199 82.057649 A 1.2825663 1.2825663 0 0 1 141.06989 80.77504 L 139.07053 80.77504 A 1.2825663 1.2825663 0 0 1 137.78792 82.057649 A 1.2825663 1.2825663 0 0 1 136.50531 80.77504 L 134.50647 80.77504 A 1.2825663 1.2825663 0 0 1 133.22386 82.057649 A 1.2825663 1.2825663 0 0 1 131.94125 80.77504 L 129.94189 80.77504 A 1.2825663 1.2825663 0 0 1 128.65928 82.057649 A 1.2825663 1.2825663 0 0 1 127.37719 80.77504 L 125.37783 80.77504 A 1.2825663 1.2825663 0 0 1 124.09522 82.057649 A 1.2825663 1.2825663 0 0 1 122.81261 80.77504 L 120.81377 80.77504 A 1.2825663 1.2825663 0 0 1 119.53116 82.057649 A 1.2825663 1.2825663 0 0 1 118.24855 80.77504 L 116.24919 80.77504 A 1.2825663 1.2825663 0 0 1 114.96658 82.057649 A 1.2825663 1.2825663 0 0 1 113.68397 80.77504 L 111.68512 80.77504 A 1.2825663 1.2825663 0 0 1 110.40251 82.057649 A 1.2825663 1.2825663 0 0 1 109.11991 80.77504 L 107.12106 80.77504 A 1.2825663 1.2825663 0 0 1 105.83845 82.057649 A 1.2825663 1.2825663 0 0 1 104.55584 80.77504 L 102.55648 80.77504 A 1.2825663 1.2825663 0 0 1 101.27387 82.057649 A 1.2825663 1.2825663 0 0 1 99.991264 80.77504 L 97.99242 80.77504 A 1.2825663 1.2825663 0 0 1 96.709811 82.057649 A 1.2825663 1.2825663 0 0 1 95.427202 80.77504 L 93.428357 80.77504 A 1.2825663 1.2825663 0 0 1 92.145748 82.057649 A 1.2825663 1.2825663 0 0 1 90.863139 80.77504 L 88.863778 80.77504 A 1.2825663 1.2825663 0 0 1 87.581169 82.057649 A 1.2825663 1.2825663 0 0 1 86.29856 80.77504 L 84.299715 80.77504 A 1.2825663 1.2825663 0 0 1 83.017106 82.057649 A 1.2825663 1.2825663 0 0 1 81.734497 80.77504 L 79.735653 80.77504 A 1.2825663 1.2825663 0 0 1 78.453044 82.057649 A 1.2825663 1.2825663 0 0 1 77.170435 80.77504 L 75.171074 80.77504 A 1.2825663 1.2825663 0 0 1 73.888465 82.057649 A 1.2825663 1.2825663 0 0 1 72.605856 80.77504 L 70.607011 80.77504 A 1.2825663 1.2825663 0 0 1 69.324402 82.057649 A 1.2825663 1.2825663 0 0 1 68.041793 80.77504 L 66.042949 80.77504 A 1.2825663 1.2825663 0 0 1 64.76034 82.057649 A 1.2825663 1.2825663 0 0 1 63.477731 80.77504 L 61.478369 80.77504 A 1.2825663 1.2825663 0 0 1 60.19576 82.057649 A 1.2825663 1.2825663 0 0 1 58.913151 80.77504 L 56.914307 80.77504 A 1.2825663 1.2825663 0 0 1 55.631698 82.057649 A 1.2825663 1.2825663 0 0 1 54.349089 80.77504 L 52.349728 80.77504 A 1.2825663 1.2825663 0 0 1 51.067635 82.057649 A 1.2825663 1.2825663 0 0 1 49.785026 80.77504 L 47.785665 80.77504 A 1.2825663 1.2825663 0 0 1 46.503056 82.057649 A 1.2825663 1.2825663 0 0 1 45.220447 80.77504 L 43.793144 80.77504 z M 48.725143 82.599218 A 1.2825663 1.2825663 0 0 1 50.007752 83.881827 A 1.2825663 1.2825663 0 0 1 48.725143 85.164436 A 1.2825663 1.2825663 0 0 1 47.442534 83.881827 A 1.2825663 1.2825663 0 0 1 48.725143 82.599218 z M 53.289205 82.599218 A 1.2825663 1.2825663 0 0 1 54.571814 83.881827 A 1.2825663 1.2825663 0 0 1 53.289205 85.164436 A 1.2825663 1.2825663 0 0 1 52.006596 83.881827 A 1.2825663 1.2825663 0 0 1 53.289205 82.599218 z M 57.853784 82.599218 A 1.2825663 1.2825663 0 0 1 59.136394 83.881827 A 1.2825663 1.2825663 0 0 1 57.853784 85.164436 A 1.2825663 1.2825663 0 0 1 56.571175 83.881827 A 1.2825663 1.2825663 0 0 1 57.853784 82.599218 z M 62.417847 82.599218 A 1.2825663 1.2825663 0 0 1 63.700456 83.881827 A 1.2825663 1.2825663 0 0 1 62.417847 85.164436 A 1.2825663 1.2825663 0 0 1 61.135238 83.881827 A 1.2825663 1.2825663 0 0 1 62.417847 82.599218 z M 66.981909 82.599218 A 1.2825663 1.2825663 0 0 1 68.264519 83.881827 A 1.2825663 1.2825663 0 0 1 66.981909 85.164436 A 1.2825663 1.2825663 0 0 1 65.699817 83.881827 A 1.2825663 1.2825663 0 0 1 66.981909 82.599218 z M 71.546489 82.599218 A 1.2825663 1.2825663 0 0 1 72.829098 83.881827 A 1.2825663 1.2825663 0 0 1 71.546489 85.164436 A 1.2825663 1.2825663 0 0 1 70.26388 83.881827 A 1.2825663 1.2825663 0 0 1 71.546489 82.599218 z M 76.110551 82.599218 A 1.2825663 1.2825663 0 0 1 77.39316 83.881827 A 1.2825663 1.2825663 0 0 1 76.110551 85.164436 A 1.2825663 1.2825663 0 0 1 74.827942 83.881827 A 1.2825663 1.2825663 0 0 1 76.110551 82.599218 z M 80.674614 82.599218 A 1.2825663 1.2825663 0 0 1 81.957223 83.881827 A 1.2825663 1.2825663 0 0 1 80.674614 85.164436 A 1.2825663 1.2825663 0 0 1 79.392521 83.881827 A 1.2825663 1.2825663 0 0 1 80.674614 82.599218 z M 85.239193 82.599218 A 1.2825663 1.2825663 0 0 1 86.521802 83.881827 A 1.2825663 1.2825663 0 0 1 85.239193 85.164436 A 1.2825663 1.2825663 0 0 1 83.956584 83.881827 A 1.2825663 1.2825663 0 0 1 85.239193 82.599218 z M 89.803255 82.599218 A 1.2825663 1.2825663 0 0 1 91.085865 83.881827 A 1.2825663 1.2825663 0 0 1 89.803255 85.164436 A 1.2825663 1.2825663 0 0 1 88.520646 83.881827 A 1.2825663 1.2825663 0 0 1 89.803255 82.599218 z M 94.367835 82.599218 A 1.2825663 1.2825663 0 0 1 95.649927 83.881827 A 1.2825663 1.2825663 0 0 1 94.367835 85.164436 A 1.2825663 1.2825663 0 0 1 93.085226 83.881827 A 1.2825663 1.2825663 0 0 1 94.367835 82.599218 z M 98.931897 82.599218 A 1.2825663 1.2825663 0 0 1 100.21451 83.881827 A 1.2825663 1.2825663 0 0 1 98.931897 85.164436 A 1.2825663 1.2825663 0 0 1 97.649288 83.881827 A 1.2825663 1.2825663 0 0 1 98.931897 82.599218 z M 103.49596 82.599218 A 1.2825663 1.2825663 0 0 1 104.77857 83.881827 A 1.2825663 1.2825663 0 0 1 103.49596 85.164436 A 1.2825663 1.2825663 0 0 1 102.21335 83.881827 A 1.2825663 1.2825663 0 0 1 103.49596 82.599218 z M 108.06054 82.599218 A 1.2825663 1.2825663 0 0 1 109.34263 83.881827 A 1.2825663 1.2825663 0 0 1 108.06054 85.164436 A 1.2825663 1.2825663 0 0 1 106.77793 83.881827 A 1.2825663 1.2825663 0 0 1 108.06054 82.599218 z M 112.6246 82.599218 A 1.2825663 1.2825663 0 0 1 113.90721 83.881827 A 1.2825663 1.2825663 0 0 1 112.6246 85.164436 A 1.2825663 1.2825663 0 0 1 111.34199 83.881827 A 1.2825663 1.2825663 0 0 1 112.6246 82.599218 z M 117.18866 82.599218 A 1.2825663 1.2825663 0 0 1 118.47127 83.881827 A 1.2825663 1.2825663 0 0 1 117.18866 85.164436 A 1.2825663 1.2825663 0 0 1 115.90605 83.881827 A 1.2825663 1.2825663 0 0 1 117.18866 82.599218 z M 121.75324 82.599218 A 1.2825663 1.2825663 0 0 1 123.03534 83.881827 A 1.2825663 1.2825663 0 0 1 121.75324 85.164436 A 1.2825663 1.2825663 0 0 1 120.47063 83.881827 A 1.2825663 1.2825663 0 0 1 121.75324 82.599218 z M 126.31731 82.599218 A 1.2825663 1.2825663 0 0 1 127.59991 83.881827 A 1.2825663 1.2825663 0 0 1 126.31731 85.164436 A 1.2825663 1.2825663 0 0 1 125.0347 83.881827 A 1.2825663 1.2825663 0 0 1 126.31731 82.599218 z M 130.88137 82.599218 A 1.2825663 1.2825663 0 0 1 132.16398 83.881827 A 1.2825663 1.2825663 0 0 1 130.88137 85.164436 A 1.2825663 1.2825663 0 0 1 129.59876 83.881827 A 1.2825663 1.2825663 0 0 1 130.88137 82.599218 z M 135.44595 82.599218 A 1.2825663 1.2825663 0 0 1 136.72856 83.881827 A 1.2825663 1.2825663 0 0 1 135.44595 85.164436 A 1.2825663 1.2825663 0 0 1 134.16334 83.881827 A 1.2825663 1.2825663 0 0 1 135.44595 82.599218 z M 140.01001 82.599218 A 1.2825663 1.2825663 0 0 1 141.29262 83.881827 A 1.2825663 1.2825663 0 0 1 140.01001 85.164436 A 1.2825663 1.2825663 0 0 1 138.7274 83.881827 A 1.2825663 1.2825663 0 0 1 140.01001 82.599218 z M 144.57407 82.599218 A 1.2825663 1.2825663 0 0 1 145.85668 83.881827 A 1.2825663 1.2825663 0 0 1 144.57407 85.164436 A 1.2825663 1.2825663 0 0 1 143.29146 83.881827 A 1.2825663 1.2825663 0 0 1 144.57407 82.599218 z M 48.725143 93.318977 A 1.2825663 1.2825663 0 0 1 50.007752 94.601586 A 1.2825663 1.2825663 0 0 1 48.725143 95.884195 A 1.2825663 1.2825663 0 0 1 47.442534 94.601586 A 1.2825663 1.2825663 0 0 1 48.725143 93.318977 z M 53.289205 93.318977 A 1.2825663 1.2825663 0 0 1 54.571814 94.601586 A 1.2825663 1.2825663 0 0 1 53.289205 95.884195 A 1.2825663 1.2825663 0 0 1 52.006596 94.601586 A 1.2825663 1.2825663 0 0 1 53.289205 93.318977 z M 57.853784 93.318977 A 1.2825663 1.2825663 0 0 1 59.136394 94.601586 A 1.2825663 1.2825663 0 0 1 57.853784 95.884195 A 1.2825663 1.2825663 0 0 1 56.571175 94.601586 A 1.2825663 1.2825663 0 0 1 57.853784 93.318977 z M 62.417847 93.318977 A 1.2825663 1.2825663 0 0 1 63.700456 94.601586 A 1.2825663 1.2825663 0 0 1 62.417847 95.884195 A 1.2825663 1.2825663 0 0 1 61.135238 94.601586 A 1.2825663 1.2825663 0 0 1 62.417847 93.318977 z M 66.981909 93.318977 A 1.2825663 1.2825663 0 0 1 68.264519 94.601586 A 1.2825663 1.2825663 0 0 1 66.981909 95.884195 A 1.2825663 1.2825663 0 0 1 65.699817 94.601586 A 1.2825663 1.2825663 0 0 1 66.981909 93.318977 z M 71.546489 93.318977 A 1.2825663 1.2825663 0 0 1 72.829098 94.601586 A 1.2825663 1.2825663 0 0 1 71.546489 95.884195 A 1.2825663 1.2825663 0 0 1 70.26388 94.601586 A 1.2825663 1.2825663 0 0 1 71.546489 93.318977 z M 76.110551 93.318977 A 1.2825663 1.2825663 0 0 1 77.39316 94.601586 A 1.2825663 1.2825663 0 0 1 76.110551 95.884195 A 1.2825663 1.2825663 0 0 1 74.827942 94.601586 A 1.2825663 1.2825663 0 0 1 76.110551 93.318977 z M 80.674614 93.318977 A 1.2825663 1.2825663 0 0 1 81.957223 94.601586 A 1.2825663 1.2825663 0 0 1 80.674614 95.884195 A 1.2825663 1.2825663 0 0 1 79.392521 94.601586 A 1.2825663 1.2825663 0 0 1 80.674614 93.318977 z M 85.239193 93.318977 A 1.2825663 1.2825663 0 0 1 86.521802 94.601586 A 1.2825663 1.2825663 0 0 1 85.239193 95.884195 A 1.2825663 1.2825663 0 0 1 83.956584 94.601586 A 1.2825663 1.2825663 0 0 1 85.239193 93.318977 z M 89.803255 93.318977 A 1.2825663 1.2825663 0 0 1 91.085865 94.601586 A 1.2825663 1.2825663 0 0 1 89.803255 95.884195 A 1.2825663 1.2825663 0 0 1 88.520646 94.601586 A 1.2825663 1.2825663 0 0 1 89.803255 93.318977 z M 94.367835 93.318977 A 1.2825663 1.2825663 0 0 1 95.649927 94.601586 A 1.2825663 1.2825663 0 0 1 94.367835 95.884195 A 1.2825663 1.2825663 0 0 1 93.085226 94.601586 A 1.2825663 1.2825663 0 0 1 94.367835 93.318977 z M 98.931897 93.318977 A 1.2825663 1.2825663 0 0 1 100.21451 94.601586 A 1.2825663 1.2825663 0 0 1 98.931897 95.884195 A 1.2825663 1.2825663 0 0 1 97.649288 94.601586 A 1.2825663 1.2825663 0 0 1 98.931897 93.318977 z M 103.49596 93.318977 A 1.2825663 1.2825663 0 0 1 104.77857 94.601586 A 1.2825663 1.2825663 0 0 1 103.49596 95.884195 A 1.2825663 1.2825663 0 0 1 102.21335 94.601586 A 1.2825663 1.2825663 0 0 1 103.49596 93.318977 z M 108.06054 93.318977 A 1.2825663 1.2825663 0 0 1 109.34263 94.601586 A 1.2825663 1.2825663 0 0 1 108.06054 95.884195 A 1.2825663 1.2825663 0 0 1 106.77793 94.601586 A 1.2825663 1.2825663 0 0 1 108.06054 93.318977 z M 112.6246 93.318977 A 1.2825663 1.2825663 0 0 1 113.90721 94.601586 A 1.2825663 1.2825663 0 0 1 112.6246 95.884195 A 1.2825663 1.2825663 0 0 1 111.34199 94.601586 A 1.2825663 1.2825663 0 0 1 112.6246 93.318977 z M 117.18866 93.318977 A 1.2825663 1.2825663 0 0 1 118.47127 94.601586 A 1.2825663 1.2825663 0 0 1 117.18866 95.884195 A 1.2825663 1.2825663 0 0 1 115.90605 94.601586 A 1.2825663 1.2825663 0 0 1 117.18866 93.318977 z M 121.75324 93.318977 A 1.2825663 1.2825663 0 0 1 123.03534 94.601586 A 1.2825663 1.2825663 0 0 1 121.75324 95.884195 A 1.2825663 1.2825663 0 0 1 120.47063 94.601586 A 1.2825663 1.2825663 0 0 1 121.75324 93.318977 z M 126.31731 93.318977 A 1.2825663 1.2825663 0 0 1 127.59991 94.601586 A 1.2825663 1.2825663 0 0 1 126.31731 95.884195 A 1.2825663 1.2825663 0 0 1 125.0347 94.601586 A 1.2825663 1.2825663 0 0 1 126.31731 93.318977 z M 130.88137 93.318977 A 1.2825663 1.2825663 0 0 1 132.16398 94.601586 A 1.2825663 1.2825663 0 0 1 130.88137 95.884195 A 1.2825663 1.2825663 0 0 1 129.59876 94.601586 A 1.2825663 1.2825663 0 0 1 130.88137 93.318977 z M 135.44595 93.318977 A 1.2825663 1.2825663 0 0 1 136.72856 94.601586 A 1.2825663 1.2825663 0 0 1 135.44595 95.884195 A 1.2825663 1.2825663 0 0 1 134.16334 94.601586 A 1.2825663 1.2825663 0 0 1 135.44595 93.318977 z M 140.01001 93.318977 A 1.2825663 1.2825663 0 0 1 141.29262 94.601586 A 1.2825663 1.2825663 0 0 1 140.01001 95.884195 A 1.2825663 1.2825663 0 0 1 138.7274 94.601586 A 1.2825663 1.2825663 0 0 1 140.01001 93.318977 z M 144.57407 93.318977 A 1.2825663 1.2825663 0 0 1 145.85668 94.601586 A 1.2825663 1.2825663 0 0 1 144.57407 95.884195 A 1.2825663 1.2825663 0 0 1 143.29146 94.601586 A 1.2825663 1.2825663 0 0 1 144.57407 93.318977 z " />
  </g>
</svg>
