<?xml version="1.0" encoding="UTF-8" standalone="no"?>
<!-- Created with Inkscape (http://www.inkscape.org/) -->

<svg
   width="105.83334mm"
   height="16.933334mm"
   viewBox="0 0 105.83333 16.933334"
   version="1.1"
   id="svg5"
   sodipodi:docname="mask2.svg"
   inkscape:version="1.2.2 (b0a8486541, 2022-12-01)"
   xmlns:inkscape="http://www.inkscape.org/namespaces/inkscape"
   xmlns:sodipodi="http://sodipodi.sourceforge.net/DTD/sodipodi-0.dtd"
   xmlns:xlink="http://www.w3.org/1999/xlink"
   xmlns="http://www.w3.org/2000/svg"
   xmlns:svg="http://www.w3.org/2000/svg">
  <sodipodi:namedview
     id="namedview7"
     pagecolor="#ffffff"
     bordercolor="#000000"
     borderopacity="0.25"
     inkscape:showpageshadow="2"
     inkscape:pageopacity="0.0"
     inkscape:pagecheckerboard="0"
     inkscape:deskcolor="#d1d1d1"
     inkscape:document-units="mm"
     showgrid="false"
     inkscape:zoom="3.1466251"
     inkscape:cx="208.15953"
     inkscape:cy="99.312753"
     inkscape:window-width="1920"
     inkscape:window-height="983"
     inkscape:window-x="0"
     inkscape:window-y="0"
     inkscape:window-maximized="1"
     inkscape:current-layer="layer1"
     showguides="false" />
  <defs
     id="defs2" />
  <g
     inkscape:label="Camada 1"
     inkscape:groupmode="layer"
     id="layer1"
     transform="translate(-43.793144,-80.77504)">
    <g
       id="g1055">
      <rect
         style="fill:#000000;stroke-width:1;stroke-linejoin:round"
         id="rect637"
         width="105.83334"
         height="8.4666662"
         x="43.793144"
         y="106.533" />
      <g
         id="g1038"
         transform="translate(-0.09163727)">
        <rect
           style="fill:#ffffff;stroke-width:0.999995;stroke-linejoin:round"
           id="rect1011"
           width="8.4666672"
           height="2.1166666"
           x="53.047798"
           y="113.94132"
           rx="1.0583333"
           ry="1.0583333" />
        <use
           x="0"
           y="0"
           xlink:href="#rect1011"
           id="use1019"
           transform="translate(13.17344)" />
        <use
           x="0"
           y="0"
           xlink:href="#rect1011"
           id="use1021"
           transform="translate(26.346881)" />
        <use
           x="0"
           y="0"
           xlink:href="#rect1011"
           id="use1023"
           transform="translate(39.520321)" />
        <use
           x="0"
           y="0"
           xlink:href="#rect1011"
           id="use1025"
           transform="translate(52.693762)" />
        <use
           x="0"
           y="0"
           xlink:href="#rect1011"
           id="use1027"
           transform="translate(65.867203)" />
        <use
           x="0"
           y="0"
           xlink:href="#rect1011"
           id="use1029"
           transform="translate(79.040643)" />
      </g>
      <rect
         style="fill:#ffffff;stroke-width:0.999995;stroke-linejoin:round"
         id="rect1040"
         width="5.9868374"
         height="5.9868374"
         x="109.29005"
         y="47.357197"
         transform="rotate(44.999999)" />
      <rect
         style="fill:#ffffff;stroke-width:0.999995;stroke-linejoin:round"
         id="rect1042"
         width="5.9868374"
         height="5.9868374"
         x="184.12553"
         y="-27.478277"
         transform="rotate(44.999999)" />
    </g>
    <path
       id="rect1057"
       style="fill:#000000;stroke-width:1;stroke-linejoin:round"
       d="M 48.026477 80.77504 L 43.793144 85.008373 L 43.793144 89.241707 L 43.793144 93.47504 L 48.026477 97.708373 L 52.956409 97.708373 C 52.956409 97.122059 53.428428 96.65004 54.014742 96.65004 L 60.364742 96.65004 C 60.951058 96.65004 61.423076 97.122059 61.423076 97.708373 L 66.129765 97.708373 C 66.129765 97.122059 66.601784 96.65004 67.188098 96.65004 L 73.538098 96.65004 C 74.124414 96.65004 74.596432 97.122059 74.596432 97.708373 L 79.303121 97.708373 C 79.303121 97.122059 79.775138 96.65004 80.361455 96.65004 L 86.711455 96.65004 C 87.297769 96.65004 87.769788 97.122059 87.769788 97.708373 L 92.476477 97.708373 C 92.476477 97.122059 92.948495 96.65004 93.534811 96.65004 L 99.884811 96.65004 C 100.47113 96.65004 100.94314 97.122059 100.94314 97.708373 L 105.64983 97.708373 C 105.64983 97.122059 106.12185 96.65004 106.70817 96.65004 L 113.05817 96.65004 C 113.64448 96.65004 114.1165 97.122059 114.1165 97.708373 L 118.82319 97.708373 C 118.82319 97.122059 119.29521 96.65004 119.88152 96.65004 L 126.23152 96.65004 C 126.81784 96.65004 127.28986 97.122059 127.28986 97.708373 L 131.99706 97.708373 C 131.99706 97.122059 132.46908 96.65004 133.0554 96.65004 L 139.4054 96.65004 C 139.99171 96.65004 140.46373 97.122059 140.46373 97.708373 L 145.39314 97.708373 L 149.62648 93.47504 L 149.62648 89.241707 L 149.62648 85.008373 L 145.39314 80.77504 L 140.46373 80.77504 C 140.46373 81.361354 139.99171 81.833373 139.4054 81.833373 L 133.0554 81.833373 C 132.46908 81.833373 131.99706 81.361354 131.99706 80.77504 L 127.28986 80.77504 C 127.28986 81.361354 126.81784 81.833373 126.23152 81.833373 L 119.88152 81.833373 C 119.29521 81.833373 118.82319 81.361354 118.82319 80.77504 L 114.1165 80.77504 C 114.1165 81.361354 113.64448 81.833373 113.05817 81.833373 L 106.70817 81.833373 C 106.12185 81.833373 105.64983 81.361354 105.64983 80.77504 L 100.94314 80.77504 C 100.94314 81.361354 100.47113 81.833373 99.884811 81.833373 L 93.534811 81.833373 C 92.948495 81.833373 92.476477 81.361354 92.476477 80.77504 L 87.769788 80.77504 C 87.769788 81.361354 87.297769 81.833373 86.711455 81.833373 L 80.361455 81.833373 C 79.775138 81.833373 79.303121 81.361354 79.303121 80.77504 L 74.596432 80.77504 C 74.596432 81.361354 74.124414 81.833373 73.538098 81.833373 L 67.188098 81.833373 C 66.601784 81.833373 66.129765 81.361354 66.129765 80.77504 L 61.423076 80.77504 C 61.423076 81.361354 60.951058 81.833373 60.364742 81.833373 L 54.014742 81.833373 C 53.428428 81.833373 52.956409 81.361354 52.956409 80.77504 L 48.026477 80.77504 z " />
  </g>
</svg>
